<svg version="1.1" id="Layer_1" xmlns="http://www.w3.org/2000/svg" xmlns:xlink="http://www.w3.org/1999/xlink" x="0px" y="0px"
	 width="100%" viewBox="0 0 496 496" enable-background="new 0 0 496 496" xml:space="preserve">
<path fill="#000000" opacity="1.000000" stroke="none" 
	d="
M269.164246,327.971130 
	C269.213196,340.910431 270.124512,339.220581 258.662598,339.300171 
	C247.499207,339.377686 236.332596,339.180908 225.172043,339.373779 
	C221.111191,339.443939 219.635437,338.121704 219.641098,333.950623 
	C219.730682,267.800140 219.730560,201.649429 219.616562,135.499008 
	C219.609177,131.220871 221.251282,130.045334 225.195877,130.082657 
	C237.858109,130.202469 250.524078,130.199722 263.185211,130.013977 
	C267.634033,129.948730 269.291443,131.426926 269.265900,136.093399 
	C269.086182,168.917786 269.142090,201.743530 269.171265,234.568787 
	C269.173279,236.829605 268.722870,239.177292 270.034088,242.038773 
	C271.884277,239.694550 273.534241,237.702698 275.078339,235.631927 
	C287.426544,219.072052 299.826111,202.549454 312.023193,185.878830 
	C314.211823,182.887482 316.464081,181.529037 320.257111,181.573334 
	C336.750824,181.765945 353.248169,181.636642 369.744080,181.675003 
	C371.328461,181.678696 373.062439,181.208527 374.483337,182.458557 
	C374.803101,184.290894 373.383484,185.170914 372.472778,186.270599 
	C353.030945,209.747223 333.638611,233.265656 314.039001,256.609985 
	C311.414124,259.736389 311.604156,261.630280 314.120300,264.591095 
	C333.753906,287.694611 353.239716,310.923767 372.750702,334.131348 
	C373.779510,335.355103 375.365021,336.302338 375.192200,338.388611 
	C373.777283,339.979065 371.825928,339.283752 370.120331,339.289551 
	C353.957794,339.344513 337.792633,339.166229 321.633789,339.416656 
	C317.273346,339.484222 314.614471,337.979797 312.142609,334.512970 
	C299.279968,316.472839 286.212585,298.578674 273.194031,280.649963 
	C272.334198,279.465820 271.697510,278.022522 269.161102,277.059235 
	C269.161102,294.128571 269.161102,310.802216 269.164246,327.971130 
z"/>
<path fill="#000000" opacity="1.000000" stroke="none" 
	d="
M186.265259,214.949646 
	C188.324265,219.776505 189.354019,224.485275 190.208633,229.238770 
	C190.771515,232.369675 189.595871,233.912323 186.245880,233.893036 
	C173.917572,233.822052 161.588638,233.850159 149.259949,233.860443 
	C146.587723,233.862671 145.315536,232.757767 144.384460,230.022415 
	C139.987991,217.106155 121.238113,211.330826 110.131195,219.251938 
	C104.594063,223.200851 104.655602,231.419235 110.405212,235.406113 
	C114.269997,238.086014 118.705551,239.597366 123.237358,240.794571 
	C135.621506,244.066177 148.117767,246.930511 160.168137,251.386520 
	C177.621017,257.840302 189.576645,269.025238 191.232849,288.474731 
	C193.003250,309.265289 184.081726,324.957245 165.301407,333.230713 
	C134.391632,346.847748 103.923470,345.224609 75.720734,325.519501 
	C64.238182,317.496735 57.666370,305.777618 55.209248,291.810791 
	C54.530281,287.951416 55.574112,286.649902 59.398220,286.680573 
	C72.559288,286.786194 85.722107,286.775635 98.883308,286.678955 
	C101.583641,286.659149 102.953476,287.515625 103.958893,290.172241 
	C108.923576,303.290405 126.910263,309.361481 139.141907,302.228699 
	C142.916824,300.027344 144.806976,296.786987 144.823425,292.376160 
	C144.839371,288.101013 142.365067,285.559753 138.893356,283.886871 
	C131.352097,280.252930 123.253189,278.273132 115.172844,276.277924 
	C106.446182,274.123138 97.727463,271.922302 89.319824,268.705383 
	C72.856628,262.406281 61.414028,251.676758 59.939693,233.182358 
	C58.482677,214.905136 64.947304,199.612961 81.009720,190.362228 
	C107.590485,175.053696 135.317261,174.973175 162.736465,188.214066 
	C173.842117,193.577057 181.429626,203.042236 186.265259,214.949646 
z"/>
<path fill="#000000" opacity="1.000000" stroke="none" 
	d="
M389.854004,326.841370 
	C381.236298,305.049072 396.683258,285.636414 419.898926,288.534424 
	C436.504150,290.607239 445.826904,300.861053 445.235962,316.717682 
	C444.841553,327.300415 439.025238,334.781036 429.801270,338.824646 
	C417.025787,344.425079 398.378052,342.405975 389.854004,326.841370 
z"/>
</svg>